<?xml version="1.0" encoding="utf-8"?>
<!-- Generator: Adobe Illustrator 25.2.3, SVG Export Plug-In . SVG Version: 6.00 Build 0)  -->
<svg version="1.1" id="Layer_2" xmlns="http://www.w3.org/2000/svg" xmlns:xlink="http://www.w3.org/1999/xlink" x="0px" y="0px"
	 viewBox="0 0 360 360" style="enable-background:new 0 0 360 360;" width="30px" height="30px" xml:space="preserve">
<style type="text/css">
	.st0{fill:#00bfff ;stroke:#00bfff;stroke-miterlimit:10;}
	.st1{fill:#00bfff;stroke:##00bfff;stroke-width:3;stroke-miterlimit:10;}
</style>
<path fill="#00bfff" d="M310.9,193H42.1c-9.7,0-17.6-7.9-17.6-17.6V38.6c0-9.7,7.9-17.6,17.6-17.6h268.8c9.7,0,17.6,7.9,17.6,17.6v136.8
	C328.5,185.1,320.6,193,310.9,193z"/>
<rect fill="#00bfff" x="161.5" y="172" width="30" height="168"/>
<g>
	<g>
		<g>
			<path fill="#00bfff"  d="M316.4,338.1c-49.1,2.7-98.2,4.3-147.3,5c-24.6,0.3-49.1,0.4-73.7,0.3c-12.3-0.1-24.6-0.2-36.8-0.4
				c-12.3-0.2-24.5-0.5-36.7-0.8c-7.3-0.8-14.5-1.7-21.9-2.5c3.6-0.3,7.1-0.5,10.7-0.8c-0.6-0.5-1.3-0.7-1.9-0.4
				c-0.1-0.4-1.1-3.1-0.5-4.9c0.6-1.8,1.3-3,1-3.5c0.7,0.2,1.4,1,1.3,1.8c0.2-1.3,0.8-2.3,1.5-2.9c0.7-0.6,1.6-2.1,1-3
				c0.9-0.1,3,3.2,2,7.9c0.5-1,1.3-1.3,1.6-1.5c0,0,0,0.1,0,0.2c1.5-2.8,2.8-4.8,2.4-5.8c1.6,0.7,3.1,2.9,2.6,5c1-3,2.6-5.3,4.4-6.5
				c1.8-1.2,4.6-4.3,3.4-6.9c1.7,0,4.2,4.7,4,11.5c0.6-0.4,1.2-0.7,1.9-0.8c1.4-0.3,3.9-1.7,3.6-3.7c0.9,0.4,1.5,2.9,1,6.1
				c1.1-0.7,2.3-1.2,3.4-2.1c4.3-3.3,4.4-4.6,4.9-8.1c0.1-0.8,1.2-1,1.6-0.5c0.6,0.9,1.1,1.8,1.4,2.7c1.3,0.4,2.8,2,2.6,3.7
				c0.5-2.7,1.6-4.7,2.9-6c1.4-1.3,3.3-4.2,2-6.2c1.9-0.3,6.1,6.4,4.1,16c1-2,2.6-2.7,3.3-3c0,0.1,0,0.2,0,0.4
				c3.1-5.8,5.6-9.8,4.8-11.9c3.2,1.3,6.3,5.9,5.4,10.1c1.9-6.2,5.2-10.8,8.8-13.3c3.7-2.5,9.2-8.9,6.7-14.2c3.4,0,8.6,9.5,8.4,23.2
				c1.2-0.9,2.5-1.4,3.7-1.7c2.9-0.7,7.8-3.5,7.1-7.7c1.8,0.7,3.3,5.8,2.3,12.4c2.3-1.5,4.6-2.6,6.8-4.3c8.7-7,8.8-9.6,9.6-16.8
				c0.2-1.7,2.5-2.2,3.3-1.1c4.3,5.6,5.2,12.6,2.2,20.6c-1.5,3.8-3.3,7.1-5.4,9.7c0.9,0,1.8,0,2.6-0.1l0.1-0.1
				c1.5-1.1,3.2-1.8,4.6-3c5.4-4.4,5.5-6,6-10.6c0.1-1.1,1.5-1.4,2.1-0.7c2.7,3.5,3.3,7.9,1.4,13c-0.1,0.4-0.3,0.7-0.5,1.1
				c3-0.1,6-0.1,9-0.2c0-0.3,0.1-0.6,0.2-0.9c0.7-2.4,1.6-4,1.2-4.7c0.9,0.2,1.9,1.2,1.8,2.4c0.3-1.7,0.9-3.1,1.8-3.9
				c0.9-0.8,2.1-2.8,1.2-4.1c1.2-0.2,4.1,4,3,10.3c0.6-1.3,1.6-1.8,2.1-2c0,0.1,0,0.1,0,0.2c1.9-3.8,3.5-6.4,2.9-7.8
				c2.1,0.8,4.2,3.7,3.6,6.4c1.1-4.1,3.2-7.1,5.5-8.7c2.3-1.7,5.8-5.9,4.1-9.3c2.2,0,5.7,6,5.8,14.9c0.8-0.6,1.6-1,2.4-1.2
				c1.9-0.5,5-2.4,4.5-5.1c1.2,0.4,2.2,3.7,1.7,8c1.5-1,3-1.8,4.3-2.9c5.5-4.6,5.6-6.3,6-11c0.1-1.1,1.6-1.4,2.1-0.7
				c2.9,3.6,3.5,8.1,1.7,13.3c-0.9,2.4-2,4.4-3.2,6.1c0.6,0,1.2,0,1.7,0c1-0.7,1.9-1.2,2.8-1.9c3.5-2.9,3.5-4,3.7-6.9
				c0.1-0.7,1-0.9,1.3-0.5c1.8,2.2,2.2,5.1,1.1,8.4c-0.1,0.3-0.2,0.6-0.4,0.9c46.1-0.1,81.8,1.1,119.8,2.5
				C330.9,336,323.6,337.1,316.4,338.1z M48.9,335.9c-0.1-0.4-0.1-0.9-0.1-1.3c-0.6,0.8-1.2,1.5-1.8,2.1l1.2-0.1
				C48.3,336.4,48.6,336.1,48.9,335.9z"/>
		</g>
	</g>
</g>
<g>
	<g>
		<path fill="#00bfff" class="st0" d="M193.7,348.9"/>
	</g>
</g>
<g>
	<g>
		<g>
			<path fill="#00bfff" d="M364.7,339.8c-23.2,1.5-46.5,2.2-69.8,2.1c-23.3-0.1-46.6-1-69.8-2.6c-3.4-0.9-6.8-1.8-10.2-2.8c1.7-0.2,3.4-0.4,5.1-0.6
				c-0.2-0.5-0.6-0.7-0.9-0.4c0-0.4-0.3-3.1,0.1-4.9c0.4-1.8,0.8-3,0.7-3.5c0.3,0.2,0.6,1,0.5,1.8c0.2-1.3,0.5-2.3,0.9-2.9
				c0.4-0.6,0.9-2,0.7-3c0.4-0.1,1.2,3.2,0.4,7.9c0.3-1,0.7-1.3,0.9-1.5c0,0,0,0.1,0,0.2c0.9-2.8,1.6-4.7,1.5-5.8
				c0.7,0.7,1.3,3,0.9,5c0.6-3,1.6-5.2,2.5-6.4c0.9-1.2,2.4-4.2,2-6.9c0.8,0.1,1.7,4.8,1.2,11.5c0.3-0.4,0.6-0.7,0.9-0.8
				c0.7-0.3,1.9-1.6,1.9-3.7c0.4,0.4,0.6,2.9,0.2,6.1c0.6-0.7,1.2-1.2,1.7-2c2.2-3.3,2.3-4.6,2.7-8.1c0.1-0.8,0.6-1,0.8-0.5
				c0.3,0.9,0.4,1.8,0.5,2.7c0.6,0.4,1.2,2,1,3.7c0.4-2.6,1-4.7,1.7-5.9c0.7-1.2,1.7-4.2,1.2-6.2c0.9-0.3,2.5,6.5,1.2,16
				c0.6-2,1.3-2.7,1.7-3c0,0.1,0,0.2,0,0.4c1.7-5.8,3.1-9.7,2.7-11.8c1.4,1.4,2.7,6,2.1,10.1c1.2-6.2,2.9-10.7,4.6-13.2
				c1.8-2.4,4.6-8.8,3.6-14.1c1.5,0.1,3.6,9.6,3.1,23.3c0.6-0.8,1.2-1.4,1.8-1.7c1.4-0.7,3.7-3.5,3.5-7.6c0.8,0.7,1.3,5.8,0.7,12.5
				c1.1-1.5,2.2-2.6,3.3-4.3c4.2-6.8,4.3-9.5,4.8-16.6c0.1-1.7,1.2-2.1,1.6-1c1.9,5.6,2.2,12.6,0.6,20.7c-0.8,3.8-1.7,7-2.8,9.6
				c0.4,0,0.8,0,1.2,0l0.1-0.1c0.8-1.1,1.5-1.8,2.2-2.9c2.6-4.3,2.7-6,3-10.5c0.1-1.1,0.7-1.3,1-0.6c1.2,3.5,1.4,7.9,0.4,13
				c-0.1,0.4-0.2,0.7-0.2,1.1c1.4,0,2.8,0,4.2,0c0-0.3,0-0.6,0.1-0.9c0.4-2.4,0.8-4,0.6-4.6c0.4,0.2,0.9,1.3,0.8,2.4
				c0.1-1.7,0.5-3.1,0.9-3.9c0.4-0.8,1-2.8,0.6-4c0.6-0.2,1.9,4.1,1.3,10.3c0.3-1.3,0.8-1.8,1-2c0,0.1,0,0.1,0,0.2
				c0.9-3.8,1.7-6.4,1.4-7.7c1,0.8,1.9,3.8,1.6,6.5c0.6-4,1.6-7,2.6-8.7c1.1-1.6,2.7-5.8,2-9.2c1,0,2.6,6.1,2.6,15
				c0.4-0.6,0.8-0.9,1.1-1.1c0.9-0.5,2.3-2.3,2.1-5c0.5,0.5,1,3.7,0.8,8c0.7-1,1.4-1.7,2-2.8c2.6-4.5,2.6-6.2,2.8-10.9
				c0-1.1,0.7-1.4,1-0.7c1.3,3.6,1.7,8.1,0.8,13.3c-0.4,2.4-0.9,4.4-1.5,6.1c0.3,0,0.5,0,0.8,0c0.4-0.7,0.9-1.1,1.3-1.9
				c1.6-2.9,1.6-3.9,1.7-6.8c0-0.7,0.5-0.9,0.6-0.4c0.9,2.3,1.1,5.1,0.6,8.4c-0.1,0.3-0.1,0.6-0.2,0.9c21.7,0.8,38.6,2.8,56.8,5.1
				C371.6,338,368.2,338.9,364.7,339.8z M238.3,333.2c0-0.4,0-0.9,0-1.3c-0.3,0.8-0.6,1.5-1,2.1l0.6-0.1
				C238,333.7,238.2,333.4,238.3,333.2z"/>
		</g>
	</g>
</g>
<path fill="#00bfff" class="st1" d="M311.2,184H42.8c-4,0-7.3-3.3-7.3-7.3V37c0-4,3.3-7.3,7.3-7.3h268.4c4,0,7.3,3.3,7.3,7.3v139.7
	C318.5,180.7,315.2,184,311.2,184z"/>
</svg>
