<?xml version="1.0" encoding="utf-8"?>
<!-- Generator: Adobe Illustrator 25.3.1, SVG Export Plug-In . SVG Version: 6.00 Build 0)  -->
<svg version="1.1" id="Layer_1" xmlns="http://www.w3.org/2000/svg" xmlns:xlink="http://www.w3.org/1999/xlink" x="0px" y="0px"
	 viewBox="0 0 167.9 175.6" style="enable-background:new 0 0 167.9 175.6;" xml:space="preserve" width="24px">
<style type="text/css">
	.user-icon{fill:#00e2f8;stroke:#00e2f8;stroke-width:10;stroke-miterlimit:10;}
</style>
<g>
	<path class="user-icon" d="M38.2,154.9c-3.3,7.5,2.7,14.5,10.1,13.6l0,2.2l-43.3,0l0-2.2c8.9,0.5,16.9-4.5,20.9-13.6L38.2,154.9z"/>
	<path class="user-icon" d="M84.5,16.7C96.1,23.5,33.7,161,32.4,169.9l-12.9,0c5.7-15.7,61-140.3,63.1-153.2L84.5,16.7z"/>
	<polygon class="user-icon" points="84.5,16.7 148.3,169.3 130,169.3 80.2,37.2 	"/>
	<path class="user-icon" d="M124.6,154.8l17.7,0c3.7,9.1,12,14,20.7,13.6l0,2.2l-48.5,0l0-2.2C121.7,169.2,128.2,163,124.6,154.8z"/>
</g>
</svg>
